<svg width="12" height="16" viewBox="0 0 12 16" fill="none" xmlns="http://www.w3.org/2000/svg">
<path d="M6 4.66669C6.74 4.66669 7.33333 4.06669 7.33333 3.33335C7.33333 3.08002 7.26667 2.84669 7.14 2.64669L6 0.666687L4.86 2.64669C4.73333 2.84669 4.66667 3.08002 4.66667 3.33335C4.66667 4.06669 5.26667 4.66669 6 4.66669ZM10 6.66669H6.66667V5.33335H5.33333V6.66669H2C0.893333 6.66669 0 7.56002 0 8.66669V14.6667C0 15.0334 0.3 15.3334 0.666667 15.3334H11.3333C11.7 15.3334 12 15.0334 12 14.6667V8.66669C12 7.56002 11.1067 6.66669 10 6.66669ZM10.6667 14H1.33333V12C1.93333 11.9934 2.50667 11.7534 2.93333 11.3267L3.66 10.6134L4.37333 11.3267C5.24667 12.2 6.76667 12.1934 7.63333 11.3267L8.35333 10.6134L9.06667 11.3267C9.49333 11.7534 10.0667 11.9934 10.6667 12V14ZM10.6667 11C10.3267 10.9934 10.0067 10.8667 9.76667 10.62L8.34667 9.20002L6.92 10.62C6.42667 11.1134 5.56667 11.1134 5.07333 10.62L3.65333 9.20002L2.22667 10.62C1.99333 10.86 1.67333 10.9934 1.33333 11V8.66669C1.33333 8.30002 1.63333 8.00002 2 8.00002H10C10.3667 8.00002 10.6667 8.30002 10.6667 8.66669V11Z" fill="#5F706A"/>
</svg>
