<svg width="18" height="18" viewBox="0 0 18 18" fill="none" xmlns="http://www.w3.org/2000/svg">
<path d="M8.99999 0.666626C4.39999 0.666626 0.666656 4.39996 0.666656 8.99996C0.666656 13.6 4.39999 17.3333 8.99999 17.3333C13.6 17.3333 17.3333 13.6 17.3333 8.99996C17.3333 4.39996 13.6 0.666626 8.99999 0.666626ZM4.89166 14.2333C5.24999 13.4833 7.43332 12.75 8.99999 12.75C10.5667 12.75 12.7583 13.4833 13.1083 14.2333C11.975 15.1333 10.55 15.6666 8.99999 15.6666C7.44999 15.6666 6.02499 15.1333 4.89166 14.2333ZM14.3 13.025C13.1083 11.575 10.2167 11.0833 8.99999 11.0833C7.78332 11.0833 4.89166 11.575 3.69999 13.025C2.84999 11.9083 2.33332 10.5166 2.33332 8.99996C2.33332 5.32496 5.32499 2.33329 8.99999 2.33329C12.675 2.33329 15.6667 5.32496 15.6667 8.99996C15.6667 10.5166 15.15 11.9083 14.3 13.025ZM8.99999 3.99996C7.38332 3.99996 6.08332 5.29996 6.08332 6.91663C6.08332 8.53329 7.38332 9.83329 8.99999 9.83329C10.6167 9.83329 11.9167 8.53329 11.9167 6.91663C11.9167 5.29996 10.6167 3.99996 8.99999 3.99996ZM8.99999 8.16663C8.30832 8.16663 7.74999 7.60829 7.74999 6.91663C7.74999 6.22496 8.30832 5.66663 8.99999 5.66663C9.69166 5.66663 10.25 6.22496 10.25 6.91663C10.25 7.60829 9.69166 8.16663 8.99999 8.16663Z" fill="#7F8C88"/>
</svg>
