<svg width="14" height="14" viewBox="0 0 14 14" fill="none" xmlns="http://www.w3.org/2000/svg">
<path d="M5.42666 4.09325C5.58 3.75992 5.66666 3.39325 5.66666 2.99992C5.66666 1.52659 4.47333 0.333252 2.99999 0.333252C1.52666 0.333252 0.333328 1.52659 0.333328 2.99992C0.333328 4.47325 1.52666 5.66659 2.99999 5.66659C3.39333 5.66659 3.75999 5.57992 4.09333 5.42659L5.66666 6.99992L4.09333 8.57325C3.75999 8.41992 3.39333 8.33325 2.99999 8.33325C1.52666 8.33325 0.333328 9.52659 0.333328 10.9999C0.333328 12.4733 1.52666 13.6666 2.99999 13.6666C4.47333 13.6666 5.66666 12.4733 5.66666 10.9999C5.66666 10.6066 5.58 10.2399 5.42666 9.90659L7 8.33325L11.6667 12.9999H13.6667V12.3333L5.42666 4.09325ZM2.99999 4.33325C2.26666 4.33325 1.66666 3.73992 1.66666 2.99992C1.66666 2.25992 2.26666 1.66659 2.99999 1.66659C3.73333 1.66659 4.33333 2.25992 4.33333 2.99992C4.33333 3.73992 3.73333 4.33325 2.99999 4.33325ZM2.99999 12.3333C2.26666 12.3333 1.66666 11.7399 1.66666 10.9999C1.66666 10.2599 2.26666 9.66659 2.99999 9.66659C3.73333 9.66659 4.33333 10.2599 4.33333 10.9999C4.33333 11.7399 3.73333 12.3333 2.99999 12.3333ZM7 7.33325C6.81333 7.33325 6.66666 7.18659 6.66666 6.99992C6.66666 6.81325 6.81333 6.66659 7 6.66659C7.18666 6.66659 7.33333 6.81325 7.33333 6.99992C7.33333 7.18659 7.18666 7.33325 7 7.33325ZM11.6667 0.999919L7.66666 4.99992L9 6.33325L13.6667 1.66659V0.999919H11.6667Z" fill="#5F706A"/>
</svg>
