<svg width="12" height="12" viewBox="0 0 12 12" fill="none" xmlns="http://www.w3.org/2000/svg">
<path d="M5.99999 2.00002C6.73332 2.00002 7.33332 2.60002 7.33332 3.33335C7.33332 4.06669 6.73332 4.66669 5.99999 4.66669C5.26666 4.66669 4.66666 4.06669 4.66666 3.33335C4.66666 2.60002 5.26666 2.00002 5.99999 2.00002ZM5.99999 8.66669C7.79999 8.66669 9.86666 9.52669 9.99999 10H1.99999C2.15332 9.52002 4.20666 8.66669 5.99999 8.66669ZM5.99999 0.666687C4.52666 0.666687 3.33332 1.86002 3.33332 3.33335C3.33332 4.80669 4.52666 6.00002 5.99999 6.00002C7.47332 6.00002 8.66666 4.80669 8.66666 3.33335C8.66666 1.86002 7.47332 0.666687 5.99999 0.666687ZM5.99999 7.33335C4.21999 7.33335 0.666656 8.22669 0.666656 10V11.3334H11.3333V10C11.3333 8.22669 7.77999 7.33335 5.99999 7.33335Z" fill="#5F706A"/>
</svg>
