<svg width="12" height="16" viewBox="0 0 12 16" fill="none" xmlns="http://www.w3.org/2000/svg">
<path d="M5.99999 2.66667V0.666672L3.33332 3.33334L5.99999 6V4C8.20666 4 9.99999 5.79334 9.99999 8C9.99999 8.67334 9.83332 9.31334 9.53332 9.86667L10.5067 10.84C11.0267 10.02 11.3333 9.04667 11.3333 8C11.3333 5.05334 8.94666 2.66667 5.99999 2.66667ZM5.99999 12C3.79332 12 1.99999 10.2067 1.99999 8C1.99999 7.32667 2.16666 6.68667 2.46666 6.13334L1.49332 5.16C0.973323 5.98 0.666656 6.95334 0.666656 8C0.666656 10.9467 3.05332 13.3333 5.99999 13.3333V15.3333L8.66666 12.6667L5.99999 10V12Z" fill="#48BB78"/>
</svg>
